<svg id="mermaid-1587190560859" width="853.25" xmlns="http://www.w3.org/2000/svg" height="330" viewBox="-10 -10 575.5 310"><style>#mermaid-1587190560859 .label{font-family:'trebuchet ms', verdana, arial;font-family:var(--mermaid-font-family);color:#333}#mermaid-1587190560859 .label text{fill:#333}#mermaid-1587190560859 .node rect,#mermaid-1587190560859 .node circle,#mermaid-1587190560859 .node ellipse,#mermaid-1587190560859 .node polygon,#mermaid-1587190560859 .node path{fill:#ECECFF;stroke:#9370db;stroke-width:1px}#mermaid-1587190560859 .node .label{text-align:center}#mermaid-1587190560859 .node.clickable{cursor:pointer}#mermaid-1587190560859 .arrowheadPath{fill:#333}#mermaid-1587190560859 .edgePath .path{stroke:#333;stroke-width:1.5px}#mermaid-1587190560859 .edgeLabel{background-color:#e8e8e8;text-align:center}#mermaid-1587190560859 .cluster rect{fill:#ffffde;stroke:#aa3;stroke-width:1px}#mermaid-1587190560859 .cluster text{fill:#333}#mermaid-1587190560859 div.mermaidTooltip{position:absolute;text-align:center;max-width:200px;padding:2px;font-family:'trebuchet ms', verdana, arial;font-family:var(--mermaid-font-family);font-size:12px;background:#ffffde;border:1px solid #aa3;border-radius:2px;pointer-events:none;z-index:100}#mermaid-1587190560859 .actor{stroke:#ccf;fill:#ECECFF}#mermaid-1587190560859 text.actor{fill:#000;stroke:none}#mermaid-1587190560859 .actor-line{stroke:grey}#mermaid-1587190560859 .messageLine0{stroke-width:1.5;stroke-dasharray:'2 2';stroke:#333}#mermaid-1587190560859 .messageLine1{stroke-width:1.5;stroke-dasharray:'2 2';stroke:#333}#mermaid-1587190560859 #arrowhead{fill:#333}#mermaid-1587190560859 .sequenceNumber{fill:#fff}#mermaid-1587190560859 #sequencenumber{fill:#333}#mermaid-1587190560859 #crosshead path{fill:#333 !important;stroke:#333 !important}#mermaid-1587190560859 .messageText{fill:#333;stroke:none}#mermaid-1587190560859 .labelBox{stroke:#ccf;fill:#ECECFF}#mermaid-1587190560859 .labelText{fill:#000;stroke:none}#mermaid-1587190560859 .loopText{fill:#000;stroke:none}#mermaid-1587190560859 .loopLine{stroke-width:2;stroke-dasharray:'2 2';stroke:#ccf}#mermaid-1587190560859 .note{stroke:#aa3;fill:#fff5ad}#mermaid-1587190560859 .noteText{fill:black;stroke:none;font-family:'trebuchet ms', verdana, arial;font-family:var(--mermaid-font-family);font-size:14px}#mermaid-1587190560859 .activation0{fill:#f4f4f4;stroke:#666}#mermaid-1587190560859 .activation1{fill:#f4f4f4;stroke:#666}#mermaid-1587190560859 .activation2{fill:#f4f4f4;stroke:#666}#mermaid-1587190560859 .mermaid-main-font{font-family:"trebuchet ms", verdana, arial;font-family:var(--mermaid-font-family)}#mermaid-1587190560859 .section{stroke:none;opacity:0.2}#mermaid-1587190560859 .section0{fill:rgba(102,102,255,0.49)}#mermaid-1587190560859 .section2{fill:#fff400}#mermaid-1587190560859 .section1,#mermaid-1587190560859 .section3{fill:#fff;opacity:0.2}#mermaid-1587190560859 .sectionTitle0{fill:#333}#mermaid-1587190560859 .sectionTitle1{fill:#333}#mermaid-1587190560859 .sectionTitle2{fill:#333}#mermaid-1587190560859 .sectionTitle3{fill:#333}#mermaid-1587190560859 .sectionTitle{text-anchor:start;font-size:11px;text-height:14px;font-family:'trebuchet ms', verdana, arial;font-family:var(--mermaid-font-family)}#mermaid-1587190560859 .grid .tick{stroke:#d3d3d3;opacity:0.8;shape-rendering:crispEdges}#mermaid-1587190560859 .grid .tick text{font-family:'trebuchet ms', verdana, arial;font-family:var(--mermaid-font-family)}#mermaid-1587190560859 .grid path{stroke-width:0}#mermaid-1587190560859 .today{fill:none;stroke:red;stroke-width:2px}#mermaid-1587190560859 .task{stroke-width:2}#mermaid-1587190560859 .taskText{text-anchor:middle;font-family:'trebuchet ms', verdana, arial;font-family:var(--mermaid-font-family)}#mermaid-1587190560859 .taskText:not([font-size]){font-size:11px}#mermaid-1587190560859 .taskTextOutsideRight{fill:#000;text-anchor:start;font-size:11px;font-family:'trebuchet ms', verdana, arial;font-family:var(--mermaid-font-family)}#mermaid-1587190560859 .taskTextOutsideLeft{fill:#000;text-anchor:end;font-size:11px}#mermaid-1587190560859 .task.clickable{cursor:pointer}#mermaid-1587190560859 .taskText.clickable{cursor:pointer;fill:#003163 !important;font-weight:bold}#mermaid-1587190560859 .taskTextOutsideLeft.clickable{cursor:pointer;fill:#003163 !important;font-weight:bold}#mermaid-1587190560859 .taskTextOutsideRight.clickable{cursor:pointer;fill:#003163 !important;font-weight:bold}#mermaid-1587190560859 .taskText0,#mermaid-1587190560859 .taskText1,#mermaid-1587190560859 .taskText2,#mermaid-1587190560859 .taskText3{fill:#fff}#mermaid-1587190560859 .task0,#mermaid-1587190560859 .task1,#mermaid-1587190560859 .task2,#mermaid-1587190560859 .task3{fill:#8a90dd;stroke:#534fbc}#mermaid-1587190560859 .taskTextOutside0,#mermaid-1587190560859 .taskTextOutside2{fill:#000}#mermaid-1587190560859 .taskTextOutside1,#mermaid-1587190560859 .taskTextOutside3{fill:#000}#mermaid-1587190560859 .active0,#mermaid-1587190560859 .active1,#mermaid-1587190560859 .active2,#mermaid-1587190560859 .active3{fill:#bfc7ff;stroke:#534fbc}#mermaid-1587190560859 .activeText0,#mermaid-1587190560859 .activeText1,#mermaid-1587190560859 .activeText2,#mermaid-1587190560859 .activeText3{fill:#000 !important}#mermaid-1587190560859 .done0,#mermaid-1587190560859 .done1,#mermaid-1587190560859 .done2,#mermaid-1587190560859 .done3{stroke:grey;fill:#d3d3d3;stroke-width:2}#mermaid-1587190560859 .doneText0,#mermaid-1587190560859 .doneText1,#mermaid-1587190560859 .doneText2,#mermaid-1587190560859 .doneText3{fill:#000 !important}#mermaid-1587190560859 .crit0,#mermaid-1587190560859 .crit1,#mermaid-1587190560859 .crit2,#mermaid-1587190560859 .crit3{stroke:#f88;fill:red;stroke-width:2}#mermaid-1587190560859 .activeCrit0,#mermaid-1587190560859 .activeCrit1,#mermaid-1587190560859 .activeCrit2,#mermaid-1587190560859 .activeCrit3{stroke:#f88;fill:#bfc7ff;stroke-width:2}#mermaid-1587190560859 .doneCrit0,#mermaid-1587190560859 .doneCrit1,#mermaid-1587190560859 .doneCrit2,#mermaid-1587190560859 .doneCrit3{stroke:#f88;fill:#d3d3d3;stroke-width:2;cursor:pointer;shape-rendering:crispEdges}#mermaid-1587190560859 .milestone{transform:rotate(45deg) scale(0.8, 0.8)}#mermaid-1587190560859 .milestoneText{font-style:italic}#mermaid-1587190560859 .doneCritText0,#mermaid-1587190560859 .doneCritText1,#mermaid-1587190560859 .doneCritText2,#mermaid-1587190560859 .doneCritText3{fill:#000 !important}#mermaid-1587190560859 .activeCritText0,#mermaid-1587190560859 .activeCritText1,#mermaid-1587190560859 .activeCritText2,#mermaid-1587190560859 .activeCritText3{fill:#000 !important}#mermaid-1587190560859 .titleText{text-anchor:middle;font-size:18px;fill:#000;font-family:'trebuchet ms', verdana, arial;font-family:var(--mermaid-font-family)}#mermaid-1587190560859 g.classGroup text{fill:#9370db;stroke:none;font-family:'trebuchet ms', verdana, arial;font-family:var(--mermaid-font-family);font-size:10px}#mermaid-1587190560859 g.classGroup text .title{font-weight:bolder}#mermaid-1587190560859 g.clickable{cursor:pointer}#mermaid-1587190560859 g.classGroup rect{fill:#ECECFF;stroke:#9370db}#mermaid-1587190560859 g.classGroup line{stroke:#9370db;stroke-width:1}#mermaid-1587190560859 .classLabel .box{stroke:none;stroke-width:0;fill:#ECECFF;opacity:0.5}#mermaid-1587190560859 .classLabel .label{fill:#9370db;font-size:10px}#mermaid-1587190560859 .relation{stroke:#9370db;stroke-width:1;fill:none}#mermaid-1587190560859 .dashed-line{stroke-dasharray:3}#mermaid-1587190560859 #compositionStart{fill:#9370db;stroke:#9370db;stroke-width:1}#mermaid-1587190560859 #compositionEnd{fill:#9370db;stroke:#9370db;stroke-width:1}#mermaid-1587190560859 #aggregationStart{fill:#ECECFF;stroke:#9370db;stroke-width:1}#mermaid-1587190560859 #aggregationEnd{fill:#ECECFF;stroke:#9370db;stroke-width:1}#mermaid-1587190560859 #dependencyStart{fill:#9370db;stroke:#9370db;stroke-width:1}#mermaid-1587190560859 #dependencyEnd{fill:#9370db;stroke:#9370db;stroke-width:1}#mermaid-1587190560859 #extensionStart{fill:#9370db;stroke:#9370db;stroke-width:1}#mermaid-1587190560859 #extensionEnd{fill:#9370db;stroke:#9370db;stroke-width:1}#mermaid-1587190560859 .commit-id,#mermaid-1587190560859 .commit-msg,#mermaid-1587190560859 .branch-label{fill:lightgrey;color:lightgrey;font-family:'trebuchet ms', verdana, arial;font-family:var(--mermaid-font-family)}#mermaid-1587190560859 .pieTitleText{text-anchor:middle;font-size:25px;fill:#000;font-family:'trebuchet ms', verdana, arial;font-family:var(--mermaid-font-family)}#mermaid-1587190560859 .slice{font-family:'trebuchet ms', verdana, arial;font-family:var(--mermaid-font-family)}#mermaid-1587190560859 g.stateGroup text{fill:#9370db;stroke:none;font-size:10px;font-family:'trebuchet ms', verdana, arial;font-family:var(--mermaid-font-family)}#mermaid-1587190560859 g.stateGroup text{fill:#9370db;stroke:none;font-size:10px}#mermaid-1587190560859 g.stateGroup .state-title{font-weight:bolder;fill:#000}#mermaid-1587190560859 g.stateGroup rect{fill:#ECECFF;stroke:#9370db}#mermaid-1587190560859 g.stateGroup line{stroke:#9370db;stroke-width:1}#mermaid-1587190560859 .transition{stroke:#9370db;stroke-width:1;fill:none}#mermaid-1587190560859 .stateGroup .composit{fill:white;border-bottom:1px}#mermaid-1587190560859 .stateGroup .alt-composit{fill:#e0e0e0;border-bottom:1px}#mermaid-1587190560859 .state-note{stroke:#aa3;fill:#fff5ad}#mermaid-1587190560859 .state-note text{fill:black;stroke:none;font-size:10px}#mermaid-1587190560859 .stateLabel .box{stroke:none;stroke-width:0;fill:#ECECFF;opacity:0.5}#mermaid-1587190560859 .stateLabel text{fill:#000;font-size:10px;font-weight:bold;font-family:'trebuchet ms', verdana, arial;font-family:var(--mermaid-font-family)}:root{--mermaid-font-family: '"trebuchet ms", verdana, arial';--mermaid-font-family: "Comic Sans MS", "Comic Sans", cursive}:root { --mermaid-font-family: "trebuchet ms", verdana, arial;}</style><style>#mermaid-1587190560859 {    color: rgb(0, 0, 0);    font: 16px "trebuchet ms", verdana, arial;  }</style><g></g><defs><marker id="extensionStart" class="extension" refX="0" refY="7" markerWidth="190" markerHeight="240" orient="auto"><path d="M 1,7 L18,13 V 1 Z"></path></marker></defs><defs><marker id="extensionEnd" refX="19" refY="7" markerWidth="20" markerHeight="28" orient="auto"><path d="M 1,1 V 13 L18,7 Z"></path></marker></defs><defs><marker id="compositionStart" class="extension" refX="0" refY="7" markerWidth="190" markerHeight="240" orient="auto"><path d="M 18,7 L9,13 L1,7 L9,1 Z"></path></marker></defs><defs><marker id="compositionEnd" refX="19" refY="7" markerWidth="20" markerHeight="28" orient="auto"><path d="M 18,7 L9,13 L1,7 L9,1 Z"></path></marker></defs><defs><marker id="aggregationStart" class="extension" refX="0" refY="7" markerWidth="190" markerHeight="240" orient="auto"><path d="M 18,7 L9,13 L1,7 L9,1 Z"></path></marker></defs><defs><marker id="aggregationEnd" refX="19" refY="7" markerWidth="20" markerHeight="28" orient="auto"><path d="M 18,7 L9,13 L1,7 L9,1 Z"></path></marker></defs><defs><marker id="dependencyStart" class="extension" refX="0" refY="7" markerWidth="190" markerHeight="240" orient="auto"><path d="M 5,7 L9,13 L1,7 L9,1 Z"></path></marker></defs><defs><marker id="dependencyEnd" refX="19" refY="7" markerWidth="20" markerHeight="28" orient="auto"><path d="M 18,7 L9,13 L14,7 L9,1 Z"></path></marker></defs><g id="classid-Spline-0" class="classGroup " transform="translate(0,170 )"><rect x="0" y="0" width="41" height="35"></rect><text y="15" x="0"><tspan class="title" x="5">Spline</tspan></text><line x1="0" y1="24" y2="24" x2="41"></line><text x="5" y="34" fill="white" class="classText"></text><line x1="0" y1="29" y2="29" x2="41"></line><text x="5" y="44" fill="white" class="classText"></text></g><g id="classid-Square-1" class="classGroup " transform="translate(98,255 )"><rect x="0" y="0" width="46" height="35"></rect><text y="15" x="0"><tspan class="title" x="5">Square</tspan></text><line x1="0" y1="24" y2="24" x2="46"></line><text x="5" y="34" fill="white" class="classText"></text><line x1="0" y1="29" y2="29" x2="46"></line><text x="5" y="44" fill="white" class="classText"></text></g><g id="classid-Rectangle-2" class="classGroup " transform="translate(91,170 )"><rect x="0" y="0" width="60" height="35"></rect><text y="15" x="0"><tspan class="title" x="5">Rectangle</tspan></text><line x1="0" y1="24" y2="24" x2="60"></line><text x="5" y="34" fill="white" class="classText"></text><line x1="0" y1="29" y2="29" x2="60"></line><text x="5" y="44" fill="white" class="classText"></text></g><g id="classid-Ellipse-3" class="classGroup " transform="translate(201,170 )"><rect x="0" y="0" width="42" height="35"></rect><text y="15" x="0"><tspan class="title" x="5">Ellipse</tspan></text><line x1="0" y1="24" y2="24" x2="42"></line><text x="5" y="34" fill="white" class="classText"></text><line x1="0" y1="29" y2="29" x2="42"></line><text x="5" y="44" fill="white" class="classText"></text></g><g id="classid-EntitySelection-4" class="classGroup " transform="translate(65.5,85 )"><rect x="0" y="0" width="86" height="35"></rect><text y="15" x="0"><tspan class="title" x="5">EntitySelection</tspan></text><line x1="0" y1="24" y2="24" x2="86"></line><text x="5" y="34" fill="white" class="classText"></text><line x1="0" y1="29" y2="29" x2="86"></line><text x="5" y="44" fill="white" class="classText"></text></g><g id="classid-Shape-5" class="classGroup " transform="translate(201.5,85 )"><rect x="0" y="0" width="41" height="35"></rect><text y="15" x="0"><tspan class="title" x="5">Shape</tspan></text><line x1="0" y1="24" y2="24" x2="41"></line><text x="5" y="34" fill="white" class="classText"></text><line x1="0" y1="29" y2="29" x2="41"></line><text x="5" y="44" fill="white" class="classText"></text></g><g id="classid-Polygon-6" class="classGroup " transform="translate(293,170 )"><rect x="0" y="0" width="50" height="35"></rect><text y="15" x="0"><tspan class="title" x="5">Polygon</tspan></text><line x1="0" y1="24" y2="24" x2="50"></line><text x="5" y="34" fill="white" class="classText"></text><line x1="0" y1="29" y2="29" x2="50"></line><text x="5" y="44" fill="white" class="classText"></text></g><g id="classid-Circle-7" class="classGroup " transform="translate(393,170 )"><rect x="0" y="0" width="38" height="35"></rect><text y="15" x="0"><tspan class="title" x="5">Circle</tspan></text><line x1="0" y1="24" y2="24" x2="38"></line><text x="5" y="34" fill="white" class="classText"></text><line x1="0" y1="29" y2="29" x2="38"></line><text x="5" y="44" fill="white" class="classText"></text></g><g id="classid-Entity-8" class="classGroup " transform="translate(292.5,85 )"><rect x="0" y="0" width="40" height="35"></rect><text y="15" x="0"><tspan class="title" x="5">Entity</tspan></text><line x1="0" y1="24" y2="24" x2="40"></line><text x="5" y="34" fill="white" class="classText"></text><line x1="0" y1="29" y2="29" x2="40"></line><text x="5" y="44" fill="white" class="classText"></text></g><g id="classid-DataClass-9" class="classGroup " transform="translate(382.5,85 )"><rect x="0" y="0" width="58" height="35"></rect><text y="15" x="0"><tspan class="title" x="5">DataClass</tspan></text><line x1="0" y1="24" y2="24" x2="58"></line><text x="5" y="34" fill="white" class="classText"></text><line x1="0" y1="29" y2="29" x2="58"></line><text x="5" y="44" fill="white" class="classText"></text></g><g id="classid-_DataStore-10" class="classGroup " transform="translate(490.5,85 )"><rect x="0" y="0" width="65" height="35"></rect><text y="15" x="0"><tspan class="title" x="5">_DataStore</tspan></text><line x1="0" y1="24" y2="24" x2="65"></line><text x="5" y="34" fill="white" class="classText"></text><line x1="0" y1="29" y2="29" x2="65"></line><text x="5" y="44" fill="white" class="classText"></text></g><g id="classid-Object-11" class="classGroup " transform="translate(291,0 )"><rect x="0" y="0" width="43" height="35"></rect><text y="15" x="0"><tspan class="title" x="5">Object</tspan></text><line x1="0" y1="24" y2="24" x2="43"></line><text x="5" y="34" fill="white" class="classText"></text><line x1="0" y1="29" y2="29" x2="43"></line><text x="5" y="44" fill="white" class="classText"></text></g><path d="M201.5,106.82382133995037L171.33333333333334,113.18651778329199C141.16666666666666,119.54921422663358,80.83333333333333,132.2746071133168,50.666666666666664,142.80397022332508C20.5,153.33333333333334,20.5,161.66666666666666,20.5,165.83333333333334L20.5,170" id="edge0" class="relation" marker-start="url(#extensionStart)"></path><path d="M121,205L121,209.16666666666666C121,213.33333333333334,121,221.66666666666666,121,230C121,238.33333333333334,121,246.66666666666666,121,250.83333333333334L121,255" id="edge1" class="relation" marker-start="url(#extensionStart)"></path><path d="M201.5,111.12623762376238L188.08333333333334,116.77186468646865C174.66666666666666,122.41749174917493,147.83333333333334,133.70874587458746,134.41666666666666,143.5210396039604C121,153.33333333333334,121,161.66666666666666,121,165.83333333333334L121,170" id="edge2" class="relation" marker-start="url(#extensionStart)"></path><path d="M222,120L222,124.16666666666667C222,128.33333333333334,222,136.66666666666666,222,145C222,153.33333333333334,222,161.66666666666666,222,165.83333333333334L222,170" id="edge3" class="relation" marker-start="url(#extensionStart)"></path><path d="M291,21.979166666666668L260.5833333333333,28.315972222222225C230.16666666666666,34.65277777777778,169.33333333333334,47.326388888888886,138.91666666666666,57.829861111111114C108.5,68.33333333333333,108.5,76.66666666666667,108.5,80.83333333333333L108.5,85" id="edge4" class="relation" marker-start="url(#extensionStart)"></path><path d="M291,27.59668508287293L279.5,32.99723756906078C268,38.39779005524862,245,49.19889502762431,233.5,58.766114180478816C222,68.33333333333333,222,76.66666666666667,222,80.83333333333333L222,85" id="edge5" class="relation" marker-start="url(#extensionStart)"></path><path d="M242.5,111.57552083333333L255.08333333333334,117.1462673611111C267.6666666666667,122.71701388888887,292.8333333333333,133.85850694444443,305.4166666666667,143.59592013888889C318,153.33333333333334,318,161.66666666666666,318,165.83333333333334L318,170" id="edge6" class="relation" marker-start="url(#extensionStart)"></path><path d="M242.5,107.08552631578948L270.75,113.4046052631579C299,119.72368421052632,355.5,132.36184210526315,383.75,142.84758771929825C412,153.33333333333334,412,161.66666666666666,412,165.83333333333334L412,170" id="edge7" class="relation" marker-start="url(#extensionStart)"></path><path d="M312.5,35L312.5,39.166666666666664C312.5,43.333333333333336,312.5,51.666666666666664,312.5,60C312.5,68.33333333333333,312.5,76.66666666666667,312.5,80.83333333333333L312.5,85" id="edge8" class="relation" marker-start="url(#extensionStart)"></path><path d="M334,26.72979797979798L346.9166666666667,32.27483164983165C359.8333333333333,37.81986531986532,385.6666666666667,48.90993265993266,398.5833333333333,58.621632996633C411.5,68.33333333333333,411.5,76.66666666666667,411.5,80.83333333333333L411.5,85" id="edge9" class="relation" marker-start="url(#extensionStart)"></path><path d="M334,21.840855106888363L365.5,28.200712589073635C397,34.56057007125891,460,47.280285035629454,491.5,57.80680918448139C523,68.33333333333333,523,76.66666666666667,523,80.83333333333333L523,85" id="edge10" class="relation" marker-start="url(#extensionStart)"></path></svg>